<?xml version="1.0" standalone="no"?>
<!DOCTYPE svg PUBLIC "-//W3C//DTD SVG 20010904//EN"
 "http://www.w3.org/TR/2001/REC-SVG-20010904/DTD/svg10.dtd">
<svg version="1.0" xmlns="http://www.w3.org/2000/svg"
 width="2000.000000pt" height="2000.000000pt" viewBox="0 0 2000.000000 2000.000000"
 preserveAspectRatio="xMidYMid meet">
<metadata>
Created by potrace 1.11, written by Peter Selinger 2001-2013
</metadata>
<g transform="translate(0.000000,2000.000000) scale(0.100000,-0.100000)"
fill="#000000" stroke="none">
<path d="M9490 19989 c-2776 -143 -5340 -1418 -7144 -3553 -1890 -2236 -2696
-5204 -2206 -8113 394 -2331 1598 -4435 3424 -5977 2236 -1890 5204 -2696
8113 -2206 2331 394 4435 1598 5977 3424 1889 2236 2696 5204 2206 8113 -394
2331 -1598 4435 -3424 5977 -1567 1324 -3536 2140 -5581 2311 -411 34 -973 44
-1365 24z m565 -1419 c2132 -125 4106 -932 5714 -2337 201 -176 698 -673 874
-874 1327 -1518 2125 -3373 2311 -5369 31 -327 39 -564 33 -1012 -8 -655 -19
-747 -142 -1233 -367 -1447 -1076 -2765 -2092 -3885 -239 -264 -571 -583 -713
-686 -1324 -959 -2915 -1554 -4540 -1698 -550 -49 -1130 -49 -1675 -1 -1661
149 -3245 747 -4608 1741 -172 126 -477 371 -647 520 -183 161 -562 535 -733
724 -1195 1320 -1976 2929 -2266 4667 -88 527 -124 966 -124 1523 0 946 125
1792 398 2695 267 879 712 1799 1225 2533 43 61 77 112 75 112 -2 0 -65 -69
-141 -152 -205 -229 -203 -218 7 33 278 332 520 578 728 739 1466 1136 3275
1827 5106 1950 88 6 180 12 205 13 116 8 854 6 1005 -3z"/>
<path d="M5987 14459 c-334 -24 -640 -108 -946 -260 -411 -204 -733 -487 -990
-870 -217 -323 -345 -658 -408 -1066 -23 -150 -23 -536 0 -687 9 -60 18 -111
20 -112 1 -2 45 29 97 68 682 511 1507 851 2350 967 266 36 409 45 715 45 397
-1 681 -31 1051 -110 243 -51 568 -149 782 -233 l52 -21 0 24 c0 50 -43 274
-76 392 -184 675 -659 1259 -1288 1585 -316 164 -636 253 -1001 279 -154 11
-199 11 -358 -1z"/>
<path d="M13632 14460 c-1163 -91 -2127 -967 -2321 -2110 -12 -67 -21 -133
-21 -146 l0 -24 53 21 c213 84 538 182 781 233 370 79 654 109 1051 110 306 0
449 -9 715 -45 843 -116 1668 -456 2350 -967 52 -39 96 -70 97 -68 2 1 11 52
20 112 23 151 23 537 0 687 -63 408 -191 743 -408 1066 -261 389 -583 670
-1004 877 -340 166 -660 245 -1050 258 -82 2 -201 0 -263 -4z"/>
<path d="M7205 9989 c-261 -34 -522 -132 -745 -281 -217 -146 -394 -316 -749
-721 -261 -299 -414 -457 -538 -557 -275 -223 -532 -323 -859 -337 -475 -20
-969 150 -1344 462 -221 184 -447 470 -573 724 l-42 85 -3 -225 c-8 -619 123
-1223 369 -1709 352 -697 925 -1108 1706 -1225 255 -38 694 -44 1238 -15 1384
74 2580 339 3546 785 267 123 564 294 727 417 l63 48 95 -68 c573 -411 1529
-778 2542 -977 728 -142 1607 -224 2408 -225 500 0 891 78 1240 249 764 374
1220 1137 1350 2261 15 137 32 680 21 680 -4 0 -22 -31 -42 -69 -105 -209
-260 -426 -424 -591 -320 -323 -680 -511 -1126 -586 -146 -25 -470 -25 -585
-1 -406 87 -672 281 -1176 862 -421 485 -646 687 -922 828 -306 157 -527 203
-922 194 -239 -6 -390 -24 -605 -72 -497 -112 -995 -368 -1410 -726 -117 -102
-319 -307 -390 -398 l-50 -63 -40 48 c-285 343 -626 624 -1011 834 -368 200
-756 322 -1166 365 -159 16 -468 18 -583 4z"/>
</g>
</svg>
