<svg xmlns="http://www.w3.org/2000/svg" viewBox="0 0 40 60"><title>rm-logo</title><path d="M34.67,26.41V12.77A6.66,6.66,0,1,0,28,1.34a6.64,6.64,0,0,0-8,0,6.64,6.64,0,0,0-8,0A6.66,6.66,0,1,0,5.33,12.77V26.41A20,20,0,1,0,34.67,26.41ZM33.33,36a5.35,5.35,0,0,1-.09.94A10.66,10.66,0,0,0,22.7,35.43,5.33,5.33,0,0,1,33.33,36Zm-16-.57A10.66,10.66,0,0,0,6.75,36.94,5.33,5.33,0,1,1,17.3,35.43ZM8,2.67A4,4,0,0,1,11,4l1,1.14L13,4a4,4,0,0,1,6,0l1,1.14L21,4a4,4,0,0,1,6,0l1,1.14L29,4a4,4,0,1,1,4,6.51l-1,.26V25.33H8V10.79l-1-.26A4,4,0,0,1,8,2.67ZM29.33,48C20.44,48,20,45.33,20,45.33S19.56,48,10.67,48,4,41.33,4,41.33A4.45,4.45,0,0,0,8,44c2.93,0,3.2-4,6.67-4A6.87,6.87,0,0,1,20,42.67,6.87,6.87,0,0,1,25.33,40c3.47,0,3.73,4,6.67,4a4.45,4.45,0,0,0,4-2.67S38.22,48,29.33,48Z"/></svg>